<svg width="24" height="24" viewBox="0 0 24 24" fill="none" xmlns="http://www.w3.org/2000/svg">
<path d="M19.8863 7.40826C19.8863 5.59094 18.4088 4.11336 16.5914 4.11336H7.40777C5.59045 4.11336 4.11288 5.59093 4.11288 7.40826V16.5919C4.11288 18.4092 5.59045 19.8868 7.40777 19.8868H16.5914C18.4088 19.8868 19.8863 18.4092 19.8863 16.5919V7.40826ZM7.40777 3.05009H16.5914C18.9986 3.05009 20.9496 5.00108 20.9496 7.40826V16.5919C20.9496 18.9991 18.9986 20.9501 16.5914 20.9501H7.40777C5.0006 20.9501 3.04961 18.9991 3.04961 16.5919V7.40826C3.04961 5.00109 5.0006 3.05009 7.40777 3.05009Z" fill="#262626" stroke="white" stroke-width="0.1"/>
<path d="M7.40343 13.5236L7.40344 13.5236L9.78406 15.8568C9.78409 15.8568 9.78411 15.8568 9.78413 15.8568C9.92747 15.9965 10.1122 16.0667 10.2976 16.0667C10.483 16.0667 10.6677 15.9965 10.811 15.8569C10.8111 15.8569 10.8111 15.8568 10.8112 15.8568L16.7634 10.0236L16.7635 10.0236C17.0523 9.74068 17.0567 9.27573 16.7729 8.98679L16.7727 8.98652C16.4901 8.69659 16.026 8.69309 15.7359 8.97646L7.40343 13.5236ZM7.40343 13.5236C7.11466 13.2407 7.11005 12.7765 7.3933 12.4866C7.6771 12.197 8.14205 12.1934 8.43013 12.4756L10.2276 14.2381L10.2976 14.3068L10.3676 14.2381L15.7358 8.97657L7.40343 13.5236Z" fill="#262626" stroke="white" stroke-width="0.2"/>
</svg>
