<svg width="18" height="18" viewBox="0 0 18 18" fill="none" xmlns="http://www.w3.org/2000/svg">
<path d="M12.5744 7.3281L12.5508 7.32806C12.3567 7.32806 12.1992 7.48732 12.1992 7.68379C12.1992 7.88026 12.3567 8.03952 12.5508 8.03952L12.5711 8.03956H12.5728C12.7662 8.03956 12.9234 7.8814 12.9244 7.6855C12.9252 7.48903 12.7686 7.32902 12.5744 7.3281Z" fill="#262626"/>
<path d="M14.0018 7.78257C14.7666 8.15459 15.4136 8.73401 15.8729 9.4581C16.3448 10.2021 16.5942 11.0648 16.5942 11.9527C16.5942 12.7087 16.4099 13.4589 16.0611 14.1221C15.9979 14.2423 15.8762 14.3108 15.7504 14.3108C15.6947 14.3108 15.6382 14.2974 15.5856 14.269C15.4142 14.1768 15.3492 13.9613 15.4404 13.7879C15.7352 13.2271 15.8911 12.5926 15.8911 11.9527C15.8911 10.4572 15.0299 9.07206 13.6971 8.42377C13.5221 8.33865 13.4485 8.12613 13.5326 7.94905C13.6167 7.77197 13.8268 7.69741 14.0018 7.78257Z" fill="#262626"/>
<path d="M11.2485 10.8967C11.2485 11.2702 11.5955 11.5741 12.022 11.5741C12.8362 11.5741 13.4985 12.1971 13.4985 12.9629C13.4985 13.6148 13.0185 14.1629 12.3735 14.3117V14.4653C12.3735 14.6618 12.2161 14.8211 12.022 14.8211C11.8278 14.8211 11.6704 14.6618 11.6704 14.4653V14.3117C11.0254 14.1629 10.5454 13.6148 10.5454 12.9629C10.5454 12.7665 10.7028 12.6072 10.897 12.6072C11.0911 12.6072 11.2485 12.7665 11.2485 12.9629C11.2485 13.3364 11.5955 13.6403 12.022 13.6403C12.4485 13.6403 12.7954 13.3364 12.7954 12.9629C12.7954 12.5894 12.4485 12.2855 12.022 12.2855C11.2078 12.2855 10.5454 11.6625 10.5454 10.8967C10.5454 10.2448 11.0254 9.69674 11.6704 9.54797V9.36296C11.6704 9.16652 11.8278 9.00723 12.022 9.00723C12.2161 9.00723 12.3735 9.16652 12.3735 9.36296V9.54797C13.0185 9.69674 13.4985 10.2448 13.4985 10.8967C13.4985 11.0932 13.3411 11.2525 13.147 11.2525C12.9528 11.2525 12.7954 11.0932 12.7954 10.8967C12.7954 10.5232 12.4485 10.2193 12.022 10.2193C11.5955 10.2193 11.2485 10.5232 11.2485 10.8967Z" fill="#262626"/>
<path d="M8.15625 11.9527C8.15625 13.4481 9.0174 14.8332 10.3502 15.4816C10.5252 15.5667 10.5988 15.7792 10.5147 15.9563C10.4542 16.0837 10.3285 16.158 10.1976 16.158C10.1465 16.158 10.0947 16.1467 10.0455 16.1228C9.28072 15.7507 8.6337 15.1713 8.17446 14.4472C7.70256 13.7032 7.45312 12.8406 7.45312 11.9527C7.45312 11.1967 7.63748 10.4465 7.98627 9.78326C8.07743 9.60981 8.2904 9.54403 8.46175 9.63631C8.63317 9.72858 8.69818 9.94401 8.60698 10.1174C8.31213 10.6782 8.15625 11.3128 8.15625 11.9527Z" fill="#262626"/>
<path d="M11.4961 15.8655L11.4757 15.8654C11.2807 15.8651 11.1234 16.023 11.1226 16.2195C11.1216 16.416 11.2784 16.576 11.4725 16.5769L11.4961 16.577C11.6902 16.577 11.8476 16.4177 11.8476 16.2212C11.8476 16.0248 11.6902 15.8655 11.4961 15.8655Z" fill="#262626"/>
<path fill-rule="evenodd" clip-rule="evenodd" d="M13.4636 5.83398C13.5246 5.92416 13.577 6.02138 13.6198 6.12454C16.1427 6.83298 18 9.17728 18 11.9526C18 15.2871 15.3189 18 12.0235 18C10.3029 18 8.75023 17.2603 7.65877 16.079H3.51562C2.62392 16.079 1.89843 15.3449 1.89843 14.4427C1.89843 13.9245 2.13799 13.4621 2.51068 13.162C2.13799 12.862 1.89843 12.3996 1.89843 11.8814C1.89843 11.3632 2.13799 10.9008 2.51068 10.6008C2.13799 10.3007 1.89843 9.83833 1.89843 9.32014C1.89843 8.80195 2.13799 8.33953 2.51068 8.03951C2.13799 7.73949 1.89843 7.27707 1.89843 6.75888C1.89843 5.8566 2.62392 5.12252 3.51562 5.12252H4.43249C4.25348 4.85921 4.14843 4.54065 4.14843 4.19762C4.14843 3.85459 4.25351 3.53603 4.43249 3.27272H1.61718C0.725483 3.27272 0 2.53864 0 1.63636C0 0.734086 0.725483 0 1.61718 0H10.2304C11.1222 0 11.8476 0.734086 11.8476 1.63636C11.8476 1.97939 11.7426 2.29795 11.5636 2.56126H14.3789C15.2706 2.56126 15.9961 3.29535 15.9961 4.19762C15.9961 5.0999 15.2706 5.83398 14.3789 5.83398H13.4636ZM15.2929 4.19762C15.2929 3.68764 14.8829 3.27272 14.3789 3.27272H5.76561C5.26158 3.27272 4.85155 3.68764 4.85155 4.19762C4.85155 4.70759 5.26158 5.12252 5.76561 5.12252H14.3789C14.8829 5.12252 15.2929 4.70759 15.2929 4.19762ZM0.703124 1.63636C0.703124 2.14634 1.11315 2.56126 1.61718 2.56126H10.2304C10.7345 2.56126 11.1445 2.14634 11.1445 1.63636C11.1445 1.12639 10.7345 0.711461 10.2304 0.711461H1.61718C1.11315 0.711461 0.703124 1.12639 0.703124 1.63636ZM12.1289 5.83398H3.51562C3.01162 5.83398 2.60156 6.2489 2.60156 6.75888C2.60156 7.26886 3.01162 7.68378 3.51562 7.68378H7.7942C8.8768 6.58564 10.373 5.90516 12.0235 5.90516C12.1933 5.90516 12.3614 5.91277 12.5277 5.9269C12.4061 5.86728 12.2705 5.83398 12.1289 5.83398ZM7.19348 8.39524H3.51562C3.01158 8.39524 2.60156 8.81016 2.60156 9.32014C2.60156 9.83015 3.01158 10.245 3.51562 10.245H6.28986C6.48582 9.57253 6.79439 8.94851 7.19348 8.39524ZM6.12843 10.9565H3.51562C3.01158 10.9565 2.60156 11.3714 2.60156 11.8814C2.60156 12.3914 3.01158 12.8063 3.51562 12.8063H6.10673C6.06761 12.5273 6.0469 12.2424 6.0469 11.9526C6.0469 11.6133 6.07509 11.2807 6.12843 10.9565ZM2.60156 14.4427C2.60156 14.9527 3.01158 15.3676 3.51562 15.3676H7.09378C6.71585 14.8107 6.42768 14.187 6.25028 13.5178H3.51562C3.01158 13.5178 2.60156 13.9326 2.60156 14.4427ZM6.75002 11.9526C6.75002 14.8948 9.11568 17.2885 12.0235 17.2885C14.9312 17.2885 17.2969 14.8948 17.2969 11.9526C17.2969 9.01033 14.9312 6.61662 12.0235 6.61662C9.11568 6.61662 6.75002 9.01033 6.75002 11.9526Z" fill="#262626"/>
</svg>
