<svg width="24" height="48" viewBox="0 0 24 48" fill="none" xmlns="http://www.w3.org/2000/svg">
<path d="M12.472 13.28H9.448V16.384H7.336V13.28H4.312V11.328H7.336V8.224H9.448V11.328H12.472V13.28ZM4.552 39.472C5.576 38.6187 6.392 37.9093 7 37.344C7.608 36.768 8.11467 36.1707 8.52 35.552C8.92533 34.9333 9.128 34.3253 9.128 33.728C9.128 33.184 9 32.7573 8.744 32.448C8.488 32.1387 8.09333 31.984 7.56 31.984C7.02667 31.984 6.616 32.1653 6.328 32.528C6.04 32.88 5.89067 33.3653 5.88 33.984H3.704C3.74667 32.704 4.12533 31.7333 4.84 31.072C5.56533 30.4107 6.48267 30.08 7.592 30.08C8.808 30.08 9.74133 30.4053 10.392 31.056C11.0427 31.696 11.368 32.544 11.368 33.6C11.368 34.432 11.144 35.2267 10.696 35.984C10.248 36.7413 9.736 37.4027 9.16 37.968C8.584 38.5227 7.832 39.1947 6.904 39.984H11.624V41.84H3.72V40.176L4.552 39.472Z" fill="#B5B5B5"/>
<circle cx="12" cy="12" r="11.5" stroke="#B5B5B5"/>
</svg>
