<svg width="20" height="19" viewBox="0 0 20 19" fill="none" xmlns="http://www.w3.org/2000/svg">
<path d="M9.73575 5.35524L3.94122 11.1967V17.5014C3.94122 17.6647 3.9942 17.8212 4.0885 17.9366C4.18281 18.0521 4.31071 18.1169 4.44408 18.1169L7.96599 18.1058C8.09892 18.1049 8.22618 18.0397 8.31994 17.9244C8.4137 17.8091 8.46634 17.653 8.46634 17.4903V13.8084C8.46634 13.6452 8.51932 13.4886 8.61362 13.3732C8.70793 13.2577 8.83583 13.1929 8.9692 13.1929H10.9806C11.114 13.1929 11.2419 13.2577 11.3362 13.3732C11.4305 13.4886 11.4835 13.6452 11.4835 13.8084V17.4876C11.4833 17.5686 11.4961 17.6488 11.5213 17.7237C11.5465 17.7986 11.5835 17.8667 11.6302 17.924C11.6769 17.9814 11.7324 18.0269 11.7936 18.058C11.8547 18.089 11.9202 18.105 11.9864 18.105L15.507 18.1169C15.6404 18.1169 15.7683 18.0521 15.8626 17.9366C15.9569 17.8212 16.0099 17.6647 16.0099 17.5014V11.1925L10.2166 5.35524C10.1485 5.28804 10.0637 5.2514 9.97618 5.2514C9.8887 5.2514 9.80385 5.28804 9.73575 5.35524ZM18.8888 9.32562L16.2613 6.67472V1.34639C16.2613 1.22396 16.2216 1.10655 16.1508 1.01997C16.0801 0.933401 15.9842 0.884766 15.8842 0.884766H14.1241C14.0241 0.884766 13.9282 0.933401 13.8575 1.01997C13.7867 1.10655 13.747 1.22396 13.747 1.34639V4.13962L10.9332 1.306C10.6632 1.03402 10.3243 0.885309 9.9746 0.885309C9.6249 0.885309 9.28606 1.03402 9.01603 1.306L1.06046 9.32562C1.02227 9.36425 0.99067 9.41172 0.967473 9.46531C0.944276 9.51889 0.929933 9.57755 0.925263 9.63793C0.920593 9.6983 0.925688 9.75921 0.940257 9.81717C0.954825 9.87514 0.978582 9.92902 1.01017 9.97574L1.8116 11.1683C1.84311 11.2152 1.88185 11.254 1.92563 11.2825C1.9694 11.311 2.01734 11.3287 2.06671 11.3346C2.11607 11.3404 2.16589 11.3342 2.21331 11.3165C2.26074 11.2987 2.30483 11.2696 2.34307 11.231L9.73575 3.77801C9.80385 3.71082 9.8887 3.67417 9.97618 3.67417C10.0637 3.67417 10.1485 3.71082 10.2166 3.77801L17.6096 11.231C17.6478 11.2696 17.6918 11.2987 17.7391 11.3166C17.7865 11.3344 17.8363 11.3406 17.8856 11.3349C17.9349 11.3292 17.9828 11.3116 18.0266 11.2832C18.0704 11.2549 18.1092 11.2162 18.1407 11.1694L18.9422 9.9769C18.9737 9.9299 18.9974 9.87574 19.0118 9.81753C19.0262 9.75931 19.031 9.69818 19.0261 9.63766C19.0211 9.57714 19.0064 9.51842 18.9829 9.46486C18.9593 9.41131 18.9273 9.36399 18.8888 9.32562Z" fill="#FD3A6C"/>
</svg>
