<svg width="19" height="18" viewBox="0 0 19 18" fill="none" xmlns="http://www.w3.org/2000/svg">
<path d="M8.81216 4.47047L3.01763 10.312V16.6167C3.01763 16.7799 3.07061 16.9364 3.16492 17.0519C3.25922 17.1673 3.38713 17.2322 3.5205 17.2322L7.04241 17.221C7.17534 17.2202 7.3026 17.155 7.39636 17.0396C7.49012 16.9243 7.54275 16.7682 7.54275 16.6055V12.9236C7.54275 12.7604 7.59573 12.6038 7.69004 12.4884C7.78434 12.373 7.91225 12.3081 8.04561 12.3081H10.0571C10.1904 12.3081 10.3183 12.373 10.4126 12.4884C10.5069 12.6038 10.5599 12.7604 10.5599 12.9236V16.6028C10.5597 16.6838 10.5726 16.764 10.5977 16.8389C10.6229 16.9138 10.6599 16.9819 10.7066 17.0393C10.7534 17.0966 10.8089 17.1421 10.87 17.1732C10.9311 17.2042 10.9966 17.2202 11.0628 17.2202L14.5834 17.2322C14.7168 17.2322 14.8447 17.1673 14.939 17.0519C15.0333 16.9364 15.0863 16.7799 15.0863 16.6167V10.3077L9.29302 4.47047C9.22491 4.40328 9.14007 4.36663 9.05259 4.36663C8.96511 4.36663 8.88027 4.40328 8.81216 4.47047ZM17.9652 8.44085L15.3377 5.78996V0.461627C15.3377 0.339196 15.298 0.221779 15.2273 0.135208C15.1565 0.0486357 15.0606 0 14.9606 0H13.2006C13.1005 0 13.0046 0.0486357 12.9339 0.135208C12.8632 0.221779 12.8234 0.339196 12.8234 0.461627V3.25486L10.0096 0.421235C9.73957 0.149251 9.40072 0.000543699 9.05102 0.000543699C8.70132 0.000543699 8.36247 0.149251 8.09244 0.421235L0.136872 8.44085C0.0986821 8.47949 0.067086 8.52695 0.043889 8.58054C0.020692 8.63413 0.00634886 8.69279 0.00167897 8.75316C-0.00299091 8.81354 0.00210405 8.87444 0.0166727 8.93241C0.0312414 8.99037 0.0549983 9.04425 0.0865859 9.09098L0.88802 10.2835C0.919522 10.3304 0.958269 10.3692 1.00204 10.3977C1.04582 10.4263 1.09376 10.444 1.14312 10.4498C1.19249 10.4556 1.24231 10.4495 1.28973 10.4317C1.33715 10.4139 1.38124 10.3849 1.41948 10.3462L8.81216 2.89325C8.88027 2.82605 8.96511 2.78941 9.05259 2.78941C9.14007 2.78941 9.22491 2.82605 9.29302 2.89325L16.686 10.3462C16.7242 10.3849 16.7682 10.414 16.8156 10.4318C16.8629 10.4496 16.9127 10.4559 16.962 10.4501C17.0113 10.4444 17.0593 10.4269 17.103 10.3985C17.1468 10.3701 17.1856 10.3314 17.2172 10.2847L18.0186 9.09213C18.0502 9.04514 18.0738 8.99098 18.0882 8.93276C18.1026 8.87454 18.1075 8.81342 18.1025 8.7529C18.0975 8.69237 18.0828 8.63365 18.0593 8.5801C18.0357 8.52655 18.0037 8.47923 17.9652 8.44085Z" fill="black"/>
</svg>
